HIERARCHY
ROOT Hips
{
	OFFSET 0.00 0.00 0.00
	CHANNELS 6 Xposition Yposition Zposition Xrotation Yrotation Zrotation
	JOINT Spine
	{
		OFFSET 0.00000 7.06766 0.00000
		CHANNELS 3 Xrotation Yrotation Zrotation
		JOINT Head
		{
			OFFSET 0.00000 15.03989 0.00000
			CHANNELS 3 Xrotation Yrotation Zrotation
			End Site
			{
				OFFSET 0.00000 4.52755 0.00000
			}
		}
		JOINT LeftShoulder
		{
			OFFSET 0.00000 10.53037 0.00000
			CHANNELS 3 Xrotation Yrotation Zrotation
			JOINT LeftArm
			{
				OFFSET 7.02886 0.00000 0.00000
				CHANNELS 3 Xrotation Yrotation Zrotation
				JOINT LeftForeArm
				{
					OFFSET 10.79770 0.00000 0.00000
					CHANNELS 3 Yrotation Zrotation Xrotation
					JOINT LeftHand
					{
						OFFSET 7.90744 0.00000 0.00000
						CHANNELS 3 Xrotation Yrotation Zrotation
						JOINT LeftHandThumb1
						{
							OFFSET 0.00000 0.00000 0.00000
							CHANNELS 3 Xrotation Zrotation Yrotation
							End Site
							{
								OFFSET 0.00000 0.00000 3.93700
							}
						}
						End Site
						{
							OFFSET 3.93700 0.00000 0.00000
						}
					}
				}
			}
		}
		JOINT RightShoulder
		{
			OFFSET 0.00000 10.53037 0.00000
			CHANNELS 3 Xrotation Yrotation Zrotation
			JOINT RightArm
			{
				OFFSET -7.02886 0.00000 0.00000
				CHANNELS 3 Xrotation Yrotation Zrotation
				JOINT RightForeArm
				{
					OFFSET -10.79770 0.00000 0.00000
					CHANNELS 3 Yrotation Zrotation Xrotation
					JOINT RightHand
					{
						OFFSET -7.90744 0.00000 0.00000
						CHANNELS 3 Xrotation Yrotation Zrotation
						JOINT RightHandThumb1
						{
							OFFSET 0.00000 0.00000 0.00000
							CHANNELS 3 Xrotation Zrotation Yrotation
							End Site
							{
								OFFSET 0.00000 0.00000 3.93700
							}
						}
						End Site
						{
							OFFSET -3.93700 0.00000 0.00000
						}
					}
				}
			}
		}
	}
	JOINT LeftUpLeg
	{
		OFFSET 4.01300 0.00000 0.00000
		CHANNELS 3 Xrotation Yrotation Zrotation
		JOINT LeftLeg
		{
			OFFSET 0.00000 -16.89976 0.00000
			CHANNELS 3 Xrotation Yrotation Zrotation
			JOINT LeftFoot
			{
				OFFSET 0.00000 -17.38918 0.00000
				CHANNELS 3 Xrotation Yrotation Zrotation
				JOINT LeftToeBase
				{
					OFFSET 0.00000 -1.27456 4.75673
					CHANNELS 3 Xrotation Yrotation Zrotation
					End Site
					{
						OFFSET 0.00000 0.00000 2.95275
					}
				}
			}
		}
	}
	JOINT RightUpLeg
	{
		OFFSET -4.01300 0.00000 0.00000
		CHANNELS 3 Xrotation Yrotation Zrotation
		JOINT RightLeg
		{
			OFFSET 0.00000 -16.89976 0.00000
			CHANNELS 3 Xrotation Yrotation Zrotation
			JOINT RightFoot
			{
				OFFSET 0.00000 -17.38918 0.00000
				CHANNELS 3 Xrotation Yrotation Zrotation
				JOINT RightToeBase
				{
					OFFSET 0.00000 -1.27456 4.75673
					CHANNELS 3 Xrotation Yrotation Zrotation
					End Site
					{
						OFFSET 0.00000 0.00000 2.95275
					}
				}
			}
		}
	}
}
MOTION
Frames: 17
Frame Time: 0.008333
 17.9268 35.4754 -22.0279 171.8250 -1.4208 179.0404 -19.4622 -0.7216 -0.6857 9.2888 -1.1880 2.6544 -33.2268 2.7345 17.1207 0.6386 -2.3785 -3.2463 3.4068 0.0000 8.6003 0.9367 8.4205 -6.3706 33.1476 -0.0000 26.2537 3.4559 -12.7578 -8.8536 -38.6055 4.7638 7.0318 4.8203 -0.0000 36.6059 1.3205 -8.3466 9.0232 32.8623 0.0000 -24.3270 0.4024 8.2208 3.8197 -5.6748 0.0000 0.0000 -15.8980 27.1946 0.5543 24.5740 -0.0000 0.0000 -1.1338 -10.1174 -3.3296 -3.4409 0.0000 0.0000 -14.4433 -27.8517 5.6639 24.0866 -0.0000 0.0000
 17.9268 35.4749 -22.0316 171.8076 -1.4236 179.0363 -19.4685 -0.7180 -0.6906 9.2824 -1.2209 2.6464 -33.2216 2.7515 17.1365 0.6307 -2.3842 -3.2542 3.3937 0.0000 8.6012 0.9353 8.4211 -6.3612 33.1476 -0.0000 26.2537 3.2417 -12.6464 -8.9106 -38.3043 4.6788 6.9593 4.8838 -0.0000 36.6501 1.3224 -8.3431 9.0394 32.8623 0.0000 -24.3270 0.3924 8.2315 3.8225 -5.6825 -0.0000 -0.0000 -15.9051 27.1863 0.5611 24.6277 0.0000 -0.0000 -1.1367 -10.1062 -3.3253 -3.4490 -0.0000 -0.0000 -14.3978 -27.8931 5.7524 23.9118 -0.0000 -0.0000
 17.9263 35.4742 -22.0351 171.7849 -1.4399 179.0339 -19.4815 -0.7157 -0.6988 9.2872 -1.2202 2.6251 -33.2161 2.7619 17.1564 0.5949 -2.3960 -3.2799 3.3967 0.0000 8.6484 0.9316 8.4119 -6.3431 33.1476 -0.0000 26.2537 3.2280 -12.6629 -8.9273 -38.0583 4.6991 6.9261 4.9818 -0.0000 36.4430 1.3222 -8.2174 9.1728 32.8623 0.0000 -24.3270 0.3778 8.1926 3.8247 -5.6861 -0.0000 -0.0000 -15.8969 27.1954 0.5808 24.5617 -0.0000 0.0000 -1.1564 -10.1446 -3.3269 -3.4397 0.0000 0.0000 -14.3934 -27.8815 5.7391 23.8821 0.0000 -0.0000
 17.9258 35.4740 -22.0384 171.7671 -1.4349 179.0317 -19.4961 -0.7099 -0.6911 9.3056 -1.2207 2.5707 -33.1799 2.7828 17.1386 0.5841 -2.3934 -3.2586 3.4033 0.0000 8.6025 0.9256 8.4007 -6.3106 33.1476 -0.0000 26.2537 3.3552 -12.6915 -8.9461 -38.1667 4.7156 6.9652 4.9722 -0.0000 36.4945 1.3404 -8.3960 9.1043 32.8623 0.0000 -24.3270 0.3643 8.2159 3.8264 -5.6859 -0.0000 -0.0000 -15.9032 27.1769 0.5798 24.5321 -0.0000 0.0000 -1.1647 -10.1444 -3.3231 -3.4539 -0.0000 0.0000 -14.4509 -27.8430 5.6776 24.1182 -0.0000 -0.0000
 17.9252 35.4733 -22.0422 171.7590 -1.4412 179.0319 -19.4942 -0.6975 -0.6936 9.3082 -1.2545 2.5310 -33.1806 2.7815 17.1329 0.5786 -2.3885 -3.2562 3.3923 0.0000 8.6002 0.9245 8.4036 -6.3009 33.1476 -0.0000 26.2537 3.3097 -12.6815 -8.9723 -38.1427 4.7043 6.9511 4.9735 -0.0000 36.5515 1.3334 -8.3909 9.0631 32.8623 0.0000 -24.3270 0.3663 8.2058 3.8248 -5.6941 -0.0000 -0.0000 -15.9193 27.1857 0.5731 24.6175 -0.0000 0.0000 -1.1595 -10.1412 -3.3230 -3.4613 0.0000 -0.0000 -14.4193 -27.8815 5.7479 23.9778 -0.0000 0.0000
 17.9244 35.4727 -22.0456 171.7475 -1.4426 179.0350 -19.4890 -0.6798 -0.7026 9.2830 -1.2512 2.5316 -33.1882 2.7830 17.1291 0.5957 -2.3919 -3.2426 3.3957 0.0000 8.5610 0.9274 8.3929 -6.3282 33.1476 -0.0000 26.2537 3.2877 -12.6859 -8.9830 -38.1739 4.6987 6.9430 5.0056 -0.0000 36.5526 1.3413 -8.4306 9.0736 32.8623 0.0000 -24.3270 0.3579 8.2088 3.8204 -5.6876 0.0000 0.0000 -15.9185 27.1779 0.5883 24.5783 -0.0000 0.0000 -1.1640 -10.1487 -3.3267 -3.4677 0.0000 0.0000 -14.4166 -27.8760 5.7390 23.9672 0.0000 -0.0000
 17.9239 35.4718 -22.0504 171.7359 -1.4487 179.0366 -19.4961 -0.6794 -0.7136 9.3159 -1.2734 2.4794 -33.1859 2.7841 17.1420 0.5841 -2.3845 -3.2437 3.3952 0.0000 8.5739 0.9279 8.3978 -6.3284 33.1476 -0.0000 26.2537 3.3097 -12.6841 -8.9942 -38.1911 4.7073 6.9522 5.0005 -0.0000 36.4450 1.3318 -8.4676 8.9718 32.8623 0.0000 -24.3270 0.3595 8.1949 3.8174 -5.6971 -0.0000 -0.0000 -15.9333 27.1845 0.5925 24.6352 -0.0000 -0.0000 -1.1602 -10.1561 -3.3291 -3.4834 -0.0000 -0.0000 -14.4682 -27.8407 5.6370 24.0836 0.0000 0.0000
 17.9239 35.4711 -22.0541 171.7302 -1.4582 179.0351 -19.4853 -0.6677 -0.7204 9.3046 -1.2886 2.4522 -33.1871 2.7917 17.1451 0.5661 -2.3928 -3.2451 3.3894 0.0000 8.5657 0.9289 8.4079 -6.3274 33.1476 -0.0000 26.2537 3.3190 -12.6938 -9.0065 -38.2197 4.7028 6.9574 5.0080 -0.0000 36.4522 1.3345 -8.4905 8.9663 32.8623 0.0000 -24.3270 0.3569 8.1767 3.8205 -5.6887 -0.0000 0.0000 -15.9218 27.1714 0.6198 24.5487 0.0000 -0.0000 -1.1492 -10.1736 -3.3247 -3.5019 0.0000 0.0000 -14.4623 -27.8376 5.6444 24.1061 0.0000 -0.0000
 17.9240 35.4705 -22.0582 171.7250 -1.4601 179.0361 -19.4762 -0.6663 -0.7300 9.2885 -1.3158 2.4277 -33.1950 2.8023 17.1491 0.5832 -2.3965 -3.2358 3.3962 0.0000 8.5362 0.9241 8.4168 -6.2883 33.1476 -0.0000 26.2537 3.3460 -12.7015 -9.0120 -38.2588 4.7159 6.9729 4.9993 -0.0000 36.4419 1.3264 -8.4697 8.9342 32.8623 0.0000 -24.3270 0.3608 8.1721 3.8194 -5.6955 0.0000 0.0000 -15.9370 27.1913 0.6024 24.5505 0.0000 0.0000 -1.1459 -10.1841 -3.3261 -3.5045 0.0000 0.0000 -14.4657 -27.8245 5.6500 24.0916 0.0000 -0.0000
 17.9234 35.4699 -22.0621 171.7182 -1.4580 179.0355 -19.4729 -0.6587 -0.7331 9.2865 -1.3341 2.3916 -33.2001 2.8126 17.1573 0.5760 -2.3989 -3.2378 3.3997 0.0000 8.5294 0.9233 8.4300 -6.2732 33.1476 -0.0000 26.2537 3.3859 -12.7018 -9.0183 -38.2973 4.7178 6.9766 4.9920 -0.0000 36.4404 1.3187 -8.4328 8.9210 32.8623 0.0000 -24.3270 0.3604 8.1740 3.8178 -5.6959 -0.0000 -0.0000 -15.9568 27.1935 0.6115 24.5951 0.0000 -0.0000 -1.1445 -10.1851 -3.3252 -3.5054 -0.0000 -0.0000 -14.4263 -27.8615 5.7433 23.9549 0.0000 -0.0000
 17.9230 35.4686 -22.0660 171.7113 -1.4572 179.0388 -19.4716 -0.6426 -0.7406 9.2883 -1.3581 2.3518 -33.1892 2.8154 17.1561 0.5393 -2.3928 -3.2307 3.4032 0.0000 8.5599 0.9215 8.4124 -6.2744 33.1476 -0.0000 26.2537 3.4231 -12.7180 -9.0240 -38.3533 4.7342 6.9937 4.9738 -0.0000 36.5140 1.3187 -8.4082 8.9462 32.8623 0.0000 -24.3270 0.3647 8.1664 3.8147 -5.7020 -0.0000 -0.0000 -15.9754 27.1948 0.6330 24.6269 -0.0000 -0.0000 -1.1453 -10.1931 -3.3301 -3.5086 -0.0000 -0.0000 -14.4630 -27.8218 5.6320 24.0266 0.0000 -0.0000
 17.9228 35.4683 -22.0693 171.7029 -1.4476 179.0358 -19.4651 -0.6245 -0.7418 9.2736 -1.3746 2.3294 -33.2201 2.8060 17.1606 0.5560 -2.3821 -3.2255 3.4082 0.0000 8.5632 0.9182 8.4188 -6.2474 33.1476 -0.0000 26.2537 3.2913 -12.6619 -9.0366 -38.1822 4.7126 6.9346 4.9816 -0.0000 36.5247 1.3192 -8.4016 8.9569 32.8623 0.0000 -24.3270 0.3651 8.1684 3.8178 -5.7082 -0.0000 -0.0000 -15.9784 27.2068 0.6273 24.6181 0.0000 -0.0000 -1.1485 -10.1772 -3.3276 -3.5109 -0.0000 -0.0000 -14.4919 -27.8217 5.6360 24.1256 0.0000 -0.0000
 17.9221 35.4681 -22.0740 171.6959 -1.4487 179.0321 -19.4642 -0.6173 -0.7405 9.2487 -1.3992 2.3098 -33.2310 2.8156 17.1561 0.5544 -2.3869 -3.2128 3.4148 0.0000 8.5463 0.9126 8.4641 -6.1766 33.1476 -0.0000 26.2537 3.2856 -12.6610 -9.0466 -38.0996 4.7216 6.9226 4.9916 -0.0000 36.4641 1.3265 -8.4279 8.9783 32.8623 0.0000 -24.3270 0.3649 8.1653 3.8208 -5.7045 -0.0000 -0.0000 -15.9684 27.2007 0.6364 24.5560 0.0000 0.0000 -1.1396 -10.1674 -3.3243 -3.5198 0.0000 0.0000 -14.4386 -27.8687 5.7459 23.9806 -0.0000 -0.0000
 17.9217 35.4672 -22.0786 171.6932 -1.4394 179.0328 -19.4566 -0.6037 -0.7437 9.2590 -1.3951 2.2619 -33.2446 2.8255 17.1614 0.5621 -2.3898 -3.2026 3.4215 0.0000 8.5256 0.9219 8.4798 -6.2279 33.1476 -0.0000 26.2537 3.3047 -12.6641 -9.0473 -38.1047 4.7360 6.9251 4.9902 -0.0000 36.4719 1.3350 -8.4619 8.9990 32.8623 0.0000 -24.3270 0.3780 8.1579 3.8200 -5.7142 0.0000 0.0000 -15.9836 27.2107 0.6444 24.5803 -0.0000 0.0000 -1.1417 -10.1716 -3.3260 -3.5142 0.0000 0.0000 -14.4914 -27.8171 5.6453 24.0701 -0.0000 0.0000
 17.9207 35.4668 -22.0831 171.6825 -1.4265 179.0332 -19.4597 -0.5831 -0.7434 9.2511 -1.3932 2.2317 -33.2491 2.8380 17.1770 0.5546 -2.3944 -3.2144 3.4270 0.0000 8.5229 0.9199 8.4687 -6.2222 33.1476 -0.0000 26.2537 3.2844 -12.6802 -9.0691 -38.1032 4.7477 6.9573 4.9712 -0.0000 36.5286 1.3219 -8.4224 8.9528 32.8623 0.0000 -24.3270 0.3811 8.1565 3.8182 -5.7229 -0.0000 0.0000 -15.9988 27.2271 0.6442 24.6100 0.0000 -0.0000 -1.1578 -10.1904 -3.3263 -3.4979 0.0000 0.0000 -14.4855 -27.8034 5.6265 24.0255 0.0000 -0.0000
 17.9208 35.4662 -22.0880 171.6776 -1.4158 179.0246 -19.4593 -0.5794 -0.7327 9.2565 -1.3858 2.1955 -33.2594 2.8459 17.1841 0.5617 -2.3834 -3.2095 3.4350 0.0000 8.5211 0.9139 8.4605 -6.1882 33.1476 -0.0000 26.2537 3.3307 -12.6825 -9.0732 -38.1574 4.7566 6.9694 4.9649 -0.0000 36.5150 1.3299 -8.4366 8.9916 32.8623 0.0000 -24.3270 0.3889 8.1699 3.8269 -5.7326 -0.0000 -0.0000 -16.0049 27.2233 0.6522 24.6107 0.0000 -0.0000 -1.1561 -10.1779 -3.3175 -3.4904 0.0000 0.0000 -14.4607 -27.8423 5.7091 23.9522 0.0000 -0.0000
 17.9193 35.4654 -22.0923 171.6715 -1.4016 179.0232 -19.4592 -0.5559 -0.7262 9.2577 -1.3883 2.1622 -33.2417 2.8542 17.1859 0.5453 -2.3752 -3.2071 3.4338 0.0000 8.4970 0.9196 8.4980 -6.1995 33.1476 -0.0000 26.2537 3.3713 -12.7018 -9.0931 -38.2305 4.7573 7.0108 4.9597 -0.0000 36.5482 1.3411 -8.5127 8.9871 32.8623 0.0000 -24.3270 0.3958 8.1777 3.8261 -5.7374 0.0000 0.0000 -16.0036 27.2128 0.6750 24.5792 -0.0000 0.0000 -1.1581 -10.1695 -3.3174 -3.4918 0.0000 -0.0000 -14.4664 -27.8363 5.7444 23.9527 0.0000 -0.0000
